HIERARCHY
ROOT Hips
{
	OFFSET 0.00000 0.00000 0.00000
	CHANNELS 6 Xposition Yposition Zposition Zrotation Yrotation Xrotation 
	JOINT LHipJoint
	{
		OFFSET 0 0 0
		CHANNELS 3 Zrotation Yrotation Xrotation
		JOINT LeftHip
		{
			OFFSET 1.42489 -1.84941 0.69647
			CHANNELS 3 Zrotation Yrotation Xrotation
			JOINT LeftKnee
			{
				OFFSET 2.44443 -6.71602 0.00000
				CHANNELS 3 Zrotation Yrotation Xrotation
				JOINT LeftAnkle
				{
					OFFSET 2.62838 -7.22137 0.00000
					CHANNELS 3 Zrotation Yrotation Xrotation
					JOINT LeftToe
					{
						OFFSET 0.24036 -0.66037 2.29953
						CHANNELS 3 Zrotation Yrotation Xrotation
						End Site
						{
							OFFSET 0.00000 -0.00000 1.19837
						}
					}
				}
			}
		}
	}
	JOINT RHipJoint
	{
		OFFSET 0 0 0
		CHANNELS 3 Zrotation Yrotation Xrotation
		JOINT RightHip
		{
			OFFSET -1.37055 -1.84941 0.69647
			CHANNELS 3 Zrotation Yrotation Xrotation
			JOINT RightKnee
			{
				OFFSET -2.54834 -7.00152 0.00000
				CHANNELS 3 Zrotation Yrotation Xrotation
				JOINT RightAnkle
				{
					OFFSET -2.65692 -7.29983 0.00000
					CHANNELS 3 Zrotation Yrotation Xrotation
					JOINT RightToe
					{
						OFFSET -0.18839 -0.51760 2.29390
						CHANNELS 3 Zrotation Yrotation Xrotation
						End Site
						{
							OFFSET -0.00000 -0.00000 1.18261
						}
					}
				}
			}
		}
	}
	JOINT lowerback
	{
		OFFSET 0 0 0
		CHANNELS 3 Zrotation Yrotation Xrotation
		JOINT Chest
		{
			OFFSET 0.05220 2.15489 0.05011
			CHANNELS 3 Zrotation Yrotation Xrotation
			JOINT Chest2
			{
				OFFSET -0.07653 2.14219 -0.05668
				CHANNELS 3 Zrotation Yrotation Xrotation
				JOINT lowerneck
				{
					OFFSET 0 0 0
					CHANNELS 3 Zrotation Yrotation Xrotation
					JOINT Neck
					{
						OFFSET 0.01370 1.58638 0.01447
						CHANNELS 3 Zrotation Yrotation Xrotation
						JOINT Head
						{
							OFFSET 0.23548 1.54190 -0.21747
							CHANNELS 3 Zrotation Yrotation Xrotation
							End Site
							{
								OFFSET 0.07132 1.59823 -0.08163
							}
						}
					}
				}
				JOINT LeftCollar
				{
					OFFSET 0 0 0
					CHANNELS 3 Zrotation Yrotation Xrotation
					JOINT LeftShoulder
					{
						OFFSET 3.47056 1.45357 -0.58896
CHANNELS 3 Zrotation Xrotation Yrotation
						JOINT LeftElbow
						{
OFFSET 0 -5.190690 0.000000
CHANNELS 3 Zrotation Xrotation Yrotation
							JOINT LeftWrist
							{
OFFSET 0 -3.300160 0.000000
CHANNELS 3 Zrotation Xrotation Yrotation
								JOINT lhand
								{
									OFFSET 0 0 0
CHANNELS 3 Zrotation Xrotation Yrotation
									JOINT LFingers
									{
OFFSET 0 -0.707700 0.000000
CHANNELS 3 Zrotation Xrotation Yrotation
										End Site
										{
OFFSET 0 -0.570560 0.000000
										}
									}
								}
								JOINT LThumb
								{
OFFSET 0 0.000000 0.000000
CHANNELS 3 Zrotation Xrotation Yrotation
									End Site
									{
OFFSET 0 -0.579280 0.579280
									}
								}
							}
						}
					}
				}
				JOINT RightCollar
				{
					OFFSET 0 0 0
					CHANNELS 3 Zrotation Yrotation Xrotation
					JOINT RightShoulder
					{
						OFFSET -2.89018 2.03305 -0.26731
CHANNELS 3 Zrotation Xrotation Yrotation
						JOINT RightElbow
						{
OFFSET 0 -5.239240 0.000000
CHANNELS 3 Zrotation Xrotation Yrotation
							JOINT RightWrist
							{
OFFSET 0 -3.329530 0.000000
CHANNELS 3 Zrotation Xrotation Yrotation
								JOINT rhand
								{
									OFFSET 0 0 0
CHANNELS 3 Zrotation Xrotation Yrotation
									JOINT RFingers
									{
OFFSET 0 -0.607410 0.000000
CHANNELS 3 Zrotation Xrotation Yrotation
										End Site
										{
OFFSET 0 -0.489710 0.000000
										}
									}
								}
								JOINT RThumb
								{
OFFSET 0 0.000000 0.000000
CHANNELS 3 Zrotation Xrotation Yrotation
									End Site
									{
OFFSET 0 -0.497190 0.497190
									}
								}
							}
						}
					}
				}
			}
		}
	}
}
MOTION
Frames: 4
Frame Time: 0.008333333333333333
0.841776 17.693006 7.890443 -6.461975 7.310457 10.734127 0.000000 0.000000 0.000000 -26.125301 5.397266 -22.912399 0.492136 4.497667 12.481316 0.488922 2.678880 -14.457703 0.023343 -0.984604 -2.706444 0.000000 0.000000 0.000000 23.539342 -9.234467 -28.182095 -24.856758 -19.421574 104.334492 -0.842070 5.639813 -16.363144 -4.437066 12.720341 -38.330419 6.746195 -0.273625 -2.333112 -1.033805 -0.628339 3.163221 -4.906156 -0.062455 4.523802 2.026649 1.881969 -11.249464 6.841868 0.797140 19.473217 2.004293 1.183273 7.863818 0.000000 0.000000 0.000000 11.295185 29.334124 -96.083028 43.554053 -50.040183 21.124524 36.002445 -9.895183 11.467540 0.000000 0.000000 0.000000 -7.125000 0.000000 0.000000 6.104770 15.956244 4.215611 0.000000 0.000000 0.000000 -3.830478 38.970976 67.957483 -50.111579 -53.040362 -26.263285 -2.378934 6.188782 -13.314836 0.000000 0.000000 0.000000 7.125000 0.000000 0.000000 17.055820 16.990901 11.868637
0.849395 17.711415 8.000347 -6.529643 8.487578 10.294978 0.000000 0.000000 0.000000 -25.892080 5.287580 -21.952672 0.490230 4.489246 12.457252 0.445144 2.537539 -13.786318 0.006610 -0.515545 -1.416636 0.000000 0.000000 0.000000 21.893197 -8.848361 -30.391809 -27.069558 -18.751292 111.096234 -0.833597 7.420249 -16.344982 -4.373276 12.641207 -38.039819 6.786365 -0.351689 -1.765787 -0.893852 -0.702080 3.324938 -4.779694 -0.101792 4.361676 1.709636 1.682046 -11.167088 7.058549 0.553848 19.348728 2.101371 1.062016 7.810459 0.000000 0.000000 0.000000 11.012616 29.131910 -95.883585 43.546661 -50.036303 21.118832 35.559856 -9.784956 11.749255 0.000000 0.000000 0.000000 -7.125000 0.000000 0.000000 5.765410 15.687061 4.012295 0.000000 0.000000 0.000000 -4.285216 38.705349 68.403970 -50.285799 -53.110144 -26.402588 -2.665718 5.983708 -13.701482 0.000000 0.000000 0.000000 7.125000 0.000000 0.000000 16.833841 16.611513 11.845829
0.857278 17.724864 8.096131 -6.966948 9.612149 9.691214 0.000000 0.000000 0.000000 -25.204117 5.024769 -21.566150 0.583778 4.890491 13.596771 0.436721 2.403613 -13.593264 0.000314 -0.020814 -0.057162 0.000000 0.000000 0.000000 20.642927 -8.072626 -32.540628 -28.880293 -17.989112 116.835238 -0.836428 8.744501 -16.517829 -4.291012 12.537878 -37.662359 7.269315 -0.431667 -0.994232 -0.673756 -0.781096 3.566164 -4.816665 -0.129127 4.166783 1.317344 1.441228 -11.166313 7.278439 0.270623 19.124438 2.207602 0.915194 7.740962 0.000000 0.000000 0.000000 10.845042 29.047966 -95.755020 43.555691 -50.040956 21.125720 35.235379 -9.936678 12.211899 0.000000 0.000000 0.000000 -7.125000 0.000000 0.000000 5.482728 15.185818 3.873013 0.000000 0.000000 0.000000 -4.734369 38.393404 69.000709 -50.369726 -53.143492 -26.469712 -2.954513 5.777436 -14.092715 0.000000 0.000000 0.000000 7.125000 0.000000 0.000000 16.612255 16.226364 11.821316
0.866099 17.727230 8.173475 -7.608601 10.656216 8.949348 0.000000 0.000000 0.000000 -24.279260 4.588855 -21.672091 0.776433 5.624929 15.700194 0.453448 2.346402 -13.793507 0.006789 0.527869 1.450556 0.000000 0.000000 0.000000 19.737930 -6.595432 -34.780150 -30.242501 -17.270200 121.326603 -0.869947 9.492198 -16.936024 -4.199338 12.421060 -37.238257 8.055697 -0.532682 0.027307 -0.427708 -0.868404 3.897343 -4.993544 -0.149829 3.923839 0.893972 1.169931 -11.246761 7.464077 -0.032347 18.702887 2.303023 0.749713 7.623790 0.000000 0.000000 0.000000 10.769964 29.045659 -95.639129 43.652620 -50.091105 21.200112 34.984107 -10.324307 12.855568 0.000000 0.000000 0.000000 -7.125000 0.000000 0.000000 5.225949 14.461368 3.771227 0.000000 0.000000 0.000000 -5.169009 38.026409 69.660841 -50.414967 -53.161549 -26.505898 -3.292383 5.825966 -14.516377 0.000000 0.000000 0.000000 7.125000 0.000000 0.000000 16.358140 15.807062 11.779824
